<svg viewBox="0 0 1080 1080" fill="none" xmlns="http://www.w3.org/2000/svg">      <defs>  <filter id="filter" x="-20%" y="-20%" width="140%" height="140%" filterUnits="objectBoundingBox" primitiveUnits="userSpaceOnUse" color-interpolation-filters="linearRGB">    <feMorphology operator="dilate" radius="20 20" in="SourceAlpha" result="morphology"/>    <feFlood flood-color="#ffffff" flood-opacity="1" result="flood"/>    <feComposite in="flood" in2="morphology" operator="in" result="composite"/>    <feMerge result="merge">          <feMergeNode in="composite" result="mergeNode"/>      <feMergeNode in="SourceGraphic" result="mergeNode1"/>      </feMerge>  </filter></defs>      <g id="notion-avatar" filter="url(#filter)">        <g id="notion-avatar-face" fill="#ffffff">      <!--?xml version="1.0" encoding="UTF-8"?-->    <title>Face/ 4</title>    <g id="Face/-4" stroke="none" stroke-width="1" fill-rule="evenodd" stroke-linecap="round" stroke-linejoin="round">        <path d="M532,379 C664.54834,379 772,486.45166 772,619 C772,751.54834 764.54834,899 592,899 C462.715227,899 358.747776,816.220491 314.739381,718.954345 C313.831676,718.98455 312.917642,719 312,719 C267.81722,719 232,683.18278 232,639 C232,599.134956 261.158843,566.080325 299.312086,560.00055 C325.599297,455.979213 419.809919,379 532,379 Z M295.858895,624.545187 L304.141105,655.454813" id="Path" stroke="#000000" stroke-width="24"/>    </g>    </g><g id="notion-avatar-nose">      <!--?xml version="1.0" encoding="UTF-8"?-->    <title>Nose/ 9</title>    <g id="Nose/-9" stroke="none" stroke-width="1" fill="none" fill-rule="evenodd" stroke-linecap="round" stroke-linejoin="round">        <path d="M631,694.380659 C663.848549,704.811956 684.630284,697.576454 693.345205,672.674154 C706.417587,635.320703 637.033407,606.392531 660.161467,579" id="Path" stroke="#000000" stroke-width="16"/>    </g>    </g><g id="notion-avatar-mouth">      <!--?xml version="1.0" encoding="UTF-8"?-->    <title>Mouth/ 1</title>    <g id="Mouth/-1" stroke="none" stroke-width="1" fill="none" fill-rule="evenodd" stroke-linecap="round" stroke-linejoin="round">        <path d="M549,759 C575.12979,773.666667 603.12979,781 633,781 C662.87021,781 682.87021,773.666667 693,759" id="Path" stroke="#000000" stroke-width="16"/>    </g>    </g><g id="notion-avatar-eyes">      <!--?xml version="1.0" encoding="UTF-8"?-->    <title>Eyes/ 0</title>    <g id="Eyes/-0" stroke="none" stroke-width="1" fill="none" fill-rule="evenodd">        <path d="M570,516 C583.254834,516 594,526.745166 594,540 C594,553.254834 583.254834,564 570,564 C556.745166,564 546,553.254834 546,540 C546,526.745166 556.745166,516 570,516 Z M708,516 C721.254834,516 732,526.745166 732,540 C732,553.254834 721.254834,564 708,564 C694.745166,564 684,553.254834 684,540 C684,526.745166 694.745166,516 708,516 Z" id="Combined-Shape" fill="#000000"/>    </g>    </g><g id="notion-avatar-eyebrows">      <g id="Eyebrows/ 11"><g id="Group"><path id="Path" fill-rule="evenodd" clip-rule="evenodd" d="M682.541 491.005C682.541 491.005 728.644 489.216 741.813 495.149C754.982 501.082 753.21 511.484 753.21 511.484C753.21 511.484 746.419 503.992 737.34 499.348C728.26 494.703 682.541 491.005 682.541 491.005Z" fill="black" stroke="black" stroke-width="8" stroke-linecap="round" stroke-linejoin="round"/><path id="Path_2" fill-rule="evenodd" clip-rule="evenodd" d="M595.459 491.005C595.459 491.005 549.356 489.216 536.187 495.149C523.018 501.082 524.79 511.484 524.79 511.484C524.79 511.484 531.581 503.992 540.66 499.348C549.74 494.703 595.459 491.005 595.459 491.005Z" fill="black" stroke="black" stroke-width="8" stroke-linecap="round" stroke-linejoin="round"/></g></g>    </g><g id="notion-avatar-glasses">      <!--?xml version="1.0" encoding="UTF-8"?-->    <title>Glasses/ 0</title>    <g id="Glasses/-0" stroke="none" stroke-width="1" fill="none" fill-rule="evenodd"/>    </g><g id="notion-avatar-hair">      <!--?xml version="1.0" encoding="UTF-8"?-->    <title>Hairstyle/ 6</title>    <g id="Hairstyle/-6" stroke="none" stroke-width="1" fill="none" fill-rule="evenodd" stroke-linecap="round" stroke-linejoin="round">        <path d="M279,719 L312,727 L361,805 C345.104968,795.793015 330.104968,783.793015 316,769 C301.895032,754.206985 289.561699,737.540318 279,719 Z M343,303 C367,222.333333 442.666667,202.333333 570,243 C761,304 782,471 782,496 C782,512.666667 778.333333,533.666667 771,559 L769.377742,556.788495 C742.968282,520.931086 720.842368,498.001587 703,488 C652.173973,459.509334 588.817434,464 549,464 C509.182566,464 428.104379,430.95793 412,428 C409.688334,427.575411 401.590927,431.429106 429,448 L430.116018,448.665115 C436.887544,452.645909 447.182205,457.757538 461,464 C447.596463,464.038164 432.312171,461.806007 415.147123,457.303529 L412.503541,456.598811 C395.711977,452.076418 384.642719,448.384272 379.295767,445.522372 L380.06813,448.7074 C388.26572,482.685415 392.364515,505.362636 392.364515,516.739062 C392.364515,528.232771 383.924355,572.72458 367.044035,650.214489 L366,655 C350.666667,619.666667 338.333333,596 329,584 C315,566 300.202254,555.429256 288,559 L287.245493,559.229979 C278.745889,561.917334 258.53666,571.367129 244,589 C238.749387,595.368958 233.08272,607.368958 227,625 L226.065502,623.594497 C212.50066,603.100798 205.145493,587.902633 204,578 C200.118123,544.441696 214.597053,517.355586 214,510 C210.524124,467.177849 188,403 244,358 L246.2348,356.214 C282.6516,327.271333 314.906667,309.533333 343,303 Z" id="Shape" stroke="#000000" stroke-width="12" fill="#000000"/>    </g>    </g><g id="notion-avatar-accessories">      <!--?xml version="1.0" encoding="UTF-8"?-->    <title>Accessories/ 0</title>    <g id="Accessories/-0" stroke="none" stroke-width="1" fill="none" fill-rule="evenodd"/>    </g><g id="notion-avatar-details">      <!--?xml version="1.0" encoding="UTF-8"?-->    <title>Details/ 0</title>    <g id="Details/-0" stroke="none" stroke-width="1" fill="none" fill-rule="evenodd"/>    </g><g id="notion-avatar-beard">      <!--?xml version="1.0" encoding="UTF-8"?-->    <title>Beard/ 0</title>    <g id="Beard/-0" stroke="none" stroke-width="1" fill="none" fill-rule="evenodd"/>    </g>      </g>      </svg>